<svg width="72" height="72" viewBox="0 0 72 72" fill="none" xmlns="http://www.w3.org/2000/svg">
<rect x="2" y="2" width="68" height="68" rx="34" fill="#1A1508"/>
<rect x="2" y="2" width="68" height="68" rx="34" stroke="url(#paint0_radial_135_38)" stroke-width="4"/>
<g clip-path="url(#paint1_diamond_135_38_clip_path)" data-figma-skip-parse="true"><g transform="matrix(0.0254558 0.0254558 -0.0254558 0.0254558 61.4558 10.5442)"><rect x="0" y="0" width="1453.5" height="2453.5" fill="url(#paint1_diamond_135_38)" opacity="1" shape-rendering="crispEdges"/><rect x="0" y="0" width="1453.5" height="2453.5" transform="scale(1 -1)" fill="url(#paint1_diamond_135_38)" opacity="1" shape-rendering="crispEdges"/><rect x="0" y="0" width="1453.5" height="2453.5" transform="scale(-1 1)" fill="url(#paint1_diamond_135_38)" opacity="1" shape-rendering="crispEdges"/><rect x="0" y="0" width="1453.5" height="2453.5" transform="scale(-1)" fill="url(#paint1_diamond_135_38)" opacity="1" shape-rendering="crispEdges"/></g></g><path d="M58.6274 58.6274C71.1242 46.1306 71.1242 25.8694 58.6274 13.3726C46.1306 0.875806 25.8694 0.875806 13.3726 13.3726C0.875806 25.8694 0.875806 46.1306 13.3726 58.6274L10.5442 61.4558C-3.51472 47.397 -3.51472 24.603 10.5442 10.5442C24.603 -3.51472 47.397 -3.51472 61.4558 10.5442C75.5147 24.603 75.5147 47.397 61.4558 61.4558C47.397 75.5147 24.603 75.5147 10.5442 61.4558L13.3726 58.6274C25.8694 71.1242 46.1306 71.1242 58.6274 58.6274Z" data-figma-gradient-fill="{&#34;type&#34;:&#34;GRADIENT_DIAMOND&#34;,&#34;stops&#34;:[{&#34;color&#34;:{&#34;r&#34;:0.95000004768371582,&#34;g&#34;:0.90906685590744019,&#34;b&#34;:0.85043275356292725,&#34;a&#34;:1.0},&#34;position&#34;:0.99999988079071045},{&#34;color&#34;:{&#34;r&#34;:1.0,&#34;g&#34;:1.0,&#34;b&#34;:1.0,&#34;a&#34;:0.0},&#34;position&#34;:1.0}],&#34;stopsVar&#34;:[{&#34;color&#34;:{&#34;r&#34;:0.95000004768371582,&#34;g&#34;:0.90906685590744019,&#34;b&#34;:0.85043275356292725,&#34;a&#34;:1.0},&#34;position&#34;:0.99999988079071045},{&#34;color&#34;:{&#34;r&#34;:1.0,&#34;g&#34;:1.0,&#34;b&#34;:1.0,&#34;a&#34;:0.0},&#34;position&#34;:1.0}],&#34;transform&#34;:{&#34;m00&#34;:50.911693572998047,&#34;m01&#34;:-50.911693572998047,&#34;m02&#34;:61.455844879150391,&#34;m10&#34;:50.911693572998047,&#34;m11&#34;:50.911693572998047,&#34;m12&#34;:-40.367465972900391},&#34;opacity&#34;:1.0,&#34;blendMode&#34;:&#34;NORMAL&#34;,&#34;visible&#34;:true}"/>
<path d="M50.025 39.0314C50.025 39.2234 50.031 39.4454 50.043 39.6974C50.055 39.9494 50.097 40.1894 50.169 40.4174C50.241 40.6334 50.355 40.8194 50.511 40.9754C50.667 41.1314 50.889 41.2094 51.177 41.2094C51.453 41.2094 51.669 41.1314 51.825 40.9754C51.993 40.8194 52.113 40.6334 52.185 40.4174C52.269 40.1894 52.317 39.9554 52.329 39.7154C52.353 39.4634 52.365 39.2414 52.365 39.0494C52.365 38.8694 52.353 38.6594 52.329 38.4194C52.317 38.1674 52.275 37.9334 52.203 37.7174C52.131 37.4894 52.017 37.2974 51.861 37.1414C51.717 36.9734 51.513 36.8894 51.249 36.8894C50.961 36.8894 50.733 36.9614 50.565 37.1054C50.409 37.2494 50.289 37.4294 50.205 37.6454C50.121 37.8614 50.067 38.0954 50.043 38.3474C50.031 38.5994 50.025 38.8274 50.025 39.0314ZM48.189 39.0134C48.189 38.5214 48.249 38.0654 48.369 37.6454C48.489 37.2254 48.675 36.8594 48.927 36.5474C49.179 36.2354 49.497 35.9894 49.881 35.8094C50.265 35.6294 50.721 35.5394 51.249 35.5394C51.813 35.5394 52.281 35.6354 52.653 35.8274C53.025 36.0074 53.325 36.2594 53.553 36.5834C53.793 36.8954 53.961 37.2674 54.057 37.6994C54.153 38.1314 54.201 38.5934 54.201 39.0854C54.201 39.5774 54.141 40.0334 54.021 40.4534C53.901 40.8734 53.715 41.2394 53.463 41.5514C53.223 41.8634 52.911 42.1094 52.527 42.2894C52.143 42.4574 51.687 42.5414 51.159 42.5414C50.607 42.5414 50.139 42.4514 49.755 42.2714C49.383 42.0914 49.077 41.8454 48.837 41.5334C48.609 41.2094 48.441 40.8314 48.333 40.3994C48.237 39.9674 48.189 39.5054 48.189 39.0134ZM49.575 29.3114H51.105L43.689 42.6854H42.123L49.575 29.3114ZM40.737 33.0554C40.737 33.2474 40.743 33.4634 40.755 33.7034C40.767 33.9434 40.809 34.1714 40.881 34.3874C40.953 34.5914 41.067 34.7654 41.223 34.9094C41.379 35.0534 41.601 35.1254 41.889 35.1254C42.165 35.1254 42.381 35.0534 42.537 34.9094C42.705 34.7654 42.825 34.5914 42.897 34.3874C42.981 34.1714 43.029 33.9494 43.041 33.7214C43.065 33.4814 43.077 33.2654 43.077 33.0734C43.077 32.8934 43.065 32.6774 43.041 32.4254C43.029 32.1614 42.987 31.9094 42.915 31.6694C42.843 31.4294 42.729 31.2254 42.573 31.0574C42.429 30.8894 42.225 30.8054 41.961 30.8054C41.673 30.8054 41.445 30.8834 41.277 31.0394C41.121 31.1954 41.001 31.3874 40.917 31.6154C40.833 31.8434 40.779 32.0894 40.755 32.3534C40.743 32.6174 40.737 32.8514 40.737 33.0554ZM38.901 33.0194C38.901 32.5274 38.961 32.0654 39.081 31.6334C39.201 31.2014 39.387 30.8234 39.639 30.4994C39.891 30.1754 40.209 29.9234 40.593 29.7434C40.977 29.5514 41.433 29.4554 41.961 29.4554C42.525 29.4554 42.993 29.5514 43.365 29.7434C43.737 29.9354 44.037 30.1994 44.265 30.5354C44.505 30.8594 44.673 31.2434 44.769 31.6874C44.865 32.1314 44.913 32.5994 44.913 33.0914C44.913 33.5834 44.853 34.0394 44.733 34.4594C44.613 34.8674 44.427 35.2214 44.175 35.5214C43.935 35.8214 43.623 36.0554 43.239 36.2234C42.855 36.3914 42.399 36.4754 41.871 36.4754C41.319 36.4754 40.851 36.3914 40.467 36.2234C40.095 36.0434 39.789 35.8034 39.549 35.5034C39.321 35.1914 39.153 34.8254 39.045 34.4054C38.949 33.9734 38.901 33.5114 38.901 33.0194Z" fill="url(#paint2_radial_135_38)"/>
<path d="M32.409 36.2414C32.757 36.2414 33.057 36.1814 33.309 36.0614C33.561 35.9294 33.771 35.7554 33.939 35.5394C34.107 35.3234 34.233 35.0774 34.317 34.8014C34.401 34.5134 34.443 34.2134 34.443 33.9014C34.443 33.6134 34.395 33.3314 34.299 33.0554C34.215 32.7674 34.083 32.5154 33.903 32.2994C33.735 32.0714 33.525 31.8914 33.273 31.7594C33.021 31.6274 32.733 31.5614 32.409 31.5614C32.109 31.5614 31.839 31.6274 31.599 31.7594C31.359 31.8914 31.155 32.0654 30.987 32.2814C30.819 32.4974 30.693 32.7434 30.609 33.0194C30.525 33.2954 30.483 33.5774 30.483 33.8654C30.483 34.1654 30.519 34.4594 30.591 34.7474C30.675 35.0234 30.795 35.2754 30.951 35.5034C31.107 35.7194 31.305 35.8994 31.545 36.0434C31.797 36.1754 32.085 36.2414 32.409 36.2414ZM30.573 39.0674C30.657 39.4874 30.849 39.8534 31.149 40.1654C31.449 40.4774 31.821 40.6334 32.265 40.6334C32.733 40.6334 33.117 40.5014 33.417 40.2374C33.717 39.9614 33.957 39.6314 34.137 39.2474C34.317 38.8514 34.443 38.4314 34.515 37.9874C34.599 37.5434 34.653 37.1474 34.677 36.7994L34.641 36.7634C34.293 37.2674 33.885 37.6274 33.417 37.8434C32.949 38.0594 32.409 38.1674 31.797 38.1674C31.257 38.1674 30.729 38.0534 30.213 37.8254C29.697 37.5854 29.259 37.2674 28.899 36.8714C28.563 36.4874 28.317 36.0494 28.161 35.5574C28.005 35.0654 27.927 34.5674 27.927 34.0634C27.927 33.4154 28.029 32.8154 28.233 32.2634C28.449 31.6994 28.749 31.2134 29.133 30.8054C29.529 30.3854 29.997 30.0554 30.537 29.8154C31.077 29.5754 31.677 29.4554 32.337 29.4554C33.297 29.4554 34.083 29.6474 34.695 30.0314C35.319 30.4034 35.817 30.9014 36.189 31.5254C36.561 32.1374 36.819 32.8334 36.963 33.6134C37.107 34.3934 37.179 35.1794 37.179 35.9714C37.179 36.7514 37.089 37.5314 36.909 38.3114C36.729 39.0914 36.441 39.7994 36.045 40.4354C35.649 41.0594 35.139 41.5694 34.515 41.9654C33.891 42.3494 33.129 42.5414 32.229 42.5414C31.689 42.5414 31.185 42.4634 30.717 42.3074C30.249 42.1634 29.835 41.9414 29.475 41.6414C29.115 41.3414 28.821 40.9754 28.593 40.5434C28.365 40.1114 28.215 39.6194 28.143 39.0674H30.573Z" fill="url(#paint3_radial_135_38)"/>
<path d="M20.6431 33.1274C20.6431 33.6674 20.8351 34.0814 21.2191 34.3694C21.6031 34.6454 22.0531 34.7834 22.5691 34.7834C23.1091 34.7834 23.5591 34.6454 23.9191 34.3694C24.2791 34.0814 24.4591 33.6674 24.4591 33.1274C24.4591 32.9594 24.4351 32.7794 24.3871 32.5874C24.3391 32.3834 24.2431 32.1914 24.0991 32.0114C23.9671 31.8314 23.7751 31.6814 23.5231 31.5614C23.2831 31.4414 22.9651 31.3814 22.5691 31.3814C22.3171 31.3814 22.0711 31.4234 21.8311 31.5074C21.6031 31.5794 21.3991 31.6874 21.2191 31.8314C21.0391 31.9754 20.8951 32.1554 20.7871 32.3714C20.6911 32.5874 20.6431 32.8394 20.6431 33.1274ZM18.3211 32.8934C18.3211 32.3294 18.4471 31.8314 18.6991 31.3994C18.9511 30.9674 19.2751 30.6074 19.6711 30.3194C20.0791 30.0314 20.5351 29.8154 21.0391 29.6714C21.5431 29.5274 22.0531 29.4554 22.5691 29.4554C23.3491 29.4554 24.0091 29.5754 24.5491 29.8154C25.0891 30.0554 25.5211 30.3494 25.8451 30.6974C26.1811 31.0334 26.4211 31.3994 26.5651 31.7954C26.7091 32.1794 26.7811 32.5274 26.7811 32.8394C26.7811 33.4634 26.6251 34.0094 26.3131 34.4774C26.0131 34.9454 25.5571 35.2814 24.9451 35.4854V35.5214C25.7011 35.6894 26.2831 36.0494 26.6911 36.6014C27.0991 37.1414 27.3031 37.8074 27.3031 38.5994C27.3031 39.2714 27.1651 39.8534 26.8891 40.3454C26.6251 40.8374 26.2711 41.2454 25.8271 41.5694C25.3831 41.8934 24.8791 42.1394 24.3151 42.3074C23.7511 42.4634 23.1751 42.5414 22.5871 42.5414C21.9751 42.5414 21.3811 42.4634 20.8051 42.3074C20.2411 42.1634 19.7311 41.9294 19.2751 41.6054C18.8311 41.2814 18.4711 40.8734 18.1951 40.3814C17.9311 39.8894 17.7991 39.3014 17.7991 38.6174C17.7991 37.8134 18.0031 37.1414 18.4111 36.6014C18.8311 36.0614 19.4191 35.7014 20.1751 35.5214V35.4854C19.5631 35.3174 19.1011 34.9994 18.7891 34.5314C18.4771 34.0634 18.3211 33.5174 18.3211 32.8934ZM20.3551 38.4914C20.3551 38.8154 20.4151 39.1094 20.5351 39.3734C20.6551 39.6374 20.8111 39.8654 21.0031 40.0574C21.2071 40.2374 21.4471 40.3814 21.7231 40.4894C21.9991 40.5854 22.2871 40.6334 22.5871 40.6334C22.8991 40.6334 23.1811 40.5854 23.4331 40.4894C23.6971 40.3814 23.9251 40.2374 24.1171 40.0574C24.3211 39.8654 24.4771 39.6374 24.5851 39.3734C24.6931 39.1094 24.7471 38.8214 24.7471 38.5094C24.7471 38.2094 24.6871 37.9394 24.5671 37.6994C24.4591 37.4474 24.3031 37.2314 24.0991 37.0514C23.9071 36.8714 23.6791 36.7334 23.4151 36.6374C23.1631 36.5414 22.8871 36.4934 22.5871 36.4934C21.9631 36.4934 21.4351 36.6674 21.0031 37.0154C20.5711 37.3514 20.3551 37.8434 20.3551 38.4914Z" fill="url(#paint4_radial_135_38)"/>
<defs>
<clipPath id="paint1_diamond_135_38_clip_path"><path d="M58.6274 58.6274C71.1242 46.1306 71.1242 25.8694 58.6274 13.3726C46.1306 0.875806 25.8694 0.875806 13.3726 13.3726C0.875806 25.8694 0.875806 46.1306 13.3726 58.6274L10.5442 61.4558C-3.51472 47.397 -3.51472 24.603 10.5442 10.5442C24.603 -3.51472 47.397 -3.51472 61.4558 10.5442C75.5147 24.603 75.5147 47.397 61.4558 61.4558C47.397 75.5147 24.603 75.5147 10.5442 61.4558L13.3726 58.6274C25.8694 71.1242 46.1306 71.1242 58.6274 58.6274Z"/></clipPath><radialGradient id="paint0_radial_135_38" cx="0" cy="0" r="1" gradientUnits="userSpaceOnUse" gradientTransform="translate(27.1349 -7.28571) scale(50.955 103.207)">
<stop stop-color="#FED9A5"/>
<stop offset="1" stop-color="#D09439"/>
</radialGradient>
<linearGradient id="paint1_diamond_135_38" x1="0" y1="0" x2="500" y2="500" gradientUnits="userSpaceOnUse">
<stop offset="1" stop-color="#F2E8D9"/>
<stop offset="1" stop-color="white" stop-opacity="0"/>
</linearGradient>
<radialGradient id="paint2_radial_135_38" cx="0" cy="0" r="1" gradientUnits="userSpaceOnUse" gradientTransform="translate(27.1349 -7.28571) scale(50.955 103.207)">
<stop stop-color="#FED9A5"/>
<stop offset="1" stop-color="#D09439"/>
</radialGradient>
<radialGradient id="paint3_radial_135_38" cx="0" cy="0" r="1" gradientUnits="userSpaceOnUse" gradientTransform="translate(27.1349 -7.28571) scale(50.955 103.207)">
<stop stop-color="#FED9A5"/>
<stop offset="1" stop-color="#D09439"/>
</radialGradient>
<radialGradient id="paint4_radial_135_38" cx="0" cy="0" r="1" gradientUnits="userSpaceOnUse" gradientTransform="translate(27.1349 -7.28571) scale(50.955 103.207)">
<stop stop-color="#FED9A5"/>
<stop offset="1" stop-color="#D09439"/>
</radialGradient>
</defs>
</svg>
