<svg width="1015" height="346" viewBox="0 0 1015 346" fill="none" xmlns="http://www.w3.org/2000/svg">
<path d="M440.7 172.9V113.3H450.9V172.9H440.7ZM448.2 172.9V164.5H480.1C484 164.5 486.8 163.7 488.6 162.1C490.4 160.5 491.3 158.4 491.3 155.7V155.1C491.3 152.3 490.4 150.2 488.6 148.6C486.8 147.1 483.9 146.3 479.9 146.3H448.1V138.2H478.9C482.7 138.2 485.4 137.5 487.1 136C488.8 134.5 489.7 132.6 489.7 130.3V129.7C489.7 127.2 488.8 125.2 487.1 123.8C485.4 122.4 482.6 121.6 478.9 121.6H448.1V113.3H479.4C486.7 113.3 492 114.6 495.3 117.1C498.5 119.6 500.1 123.2 500.1 127.8V128.5C500.1 131.9 499.1 134.6 497 136.7C494.9 138.8 492 140 488.1 140.4V140.8C492.5 141.4 496 142.9 498.3 145.4C500.7 147.9 501.9 151.3 501.9 155.8V156.5C501.9 161.6 500.2 165.6 496.8 168.5C493.4 171.5 488 172.9 480.6 172.9H448H448.2Z" fill="white"/>
<path d="M527.4 172.9L555 113.3H570.7L598.1 172.9H587.3L563.6 119.8H562.1L538.2 172.9H527.4ZM543.5 156.4V148H581.9V156.4H543.5Z" fill="white"/>
<path d="M637.9 172.9H627.5V113.3H637.9V172.9ZM632.9 164.4H678.6V172.9H632.9V164.4Z" fill="white"/>
<path d="M719.3 172.9H708.9V113.3H719.3V172.9ZM714.2 164.4H759.9V172.9H714.2V164.4Z" fill="white"/>
<path d="M816.3 174.3C812.1 174.3 808.3 174 804.8 173.3C801.3 172.7 798.2 171.9 795.4 170.9C792.7 170 790.3 169.1 788.4 168.2L787.3 158.2C790.7 160 794.9 161.7 800 163.1C805 164.6 810.4 165.3 816.3 165.3C822.2 165.3 827.2 164.5 830.1 163C833 161.5 834.5 159.2 834.5 156C834.5 153.8 833.9 152.1 832.7 150.8C831.5 149.5 829.5 148.6 826.6 147.9C823.7 147.2 819.7 146.7 814.6 146.3C807.9 145.8 802.6 144.9 798.6 143.6C794.6 142.3 791.8 140.5 790 138.1C788.3 135.7 787.4 132.6 787.4 128.9V128.7C787.4 123.2 789.6 119.1 794 116.2C798.4 113.3 805.1 111.9 814.2 111.9C823.3 111.9 825.8 112.5 830.2 113.6C834.6 114.7 838.2 115.9 841 117.2L842.2 126.4C838.8 124.7 834.8 123.3 830.2 122.2C825.6 121 820.6 120.5 815.1 120.5C809.6 120.5 807.5 120.8 805 121.5C802.5 122.2 800.8 123.1 799.7 124.3C798.6 125.5 798.1 127 798.1 128.8C798.1 130.6 798.6 132.1 799.6 133.3C800.6 134.5 802.5 135.5 805.3 136.2C808.1 137 812.2 137.6 817.7 138.1C824.2 138.7 829.5 139.5 833.6 140.7C837.7 141.9 840.6 143.6 842.5 146C844.4 148.4 845.3 151.7 845.3 155.9V156.1C845.3 162.3 842.9 166.9 838.1 169.8C833.3 172.8 826 174.2 816.3 174.2V174.3Z" fill="white"/>
<path d="M464.2 261.9C455.3 261.9 448.7 260.2 444.2 256.7C439.7 253.2 437.5 248.7 437.5 243.1V242.7C437.5 238.2 438.7 234.4 441 231.4C443.3 228.4 447 225.9 452.1 224L458.1 229.9C454.9 231.1 452.5 232.5 450.8 234.3C449.1 236.1 448.3 238.5 448.3 241.5V241.9C448.3 245.4 449.7 248.2 452.6 250.3C455.5 252.5 459.6 253.5 465 253.5C470.4 253.5 472.9 252.9 476.2 251.7C479.5 250.5 482.4 248.8 484.9 246.5L487 244.2C489.1 241.7 490.8 238.9 492.3 235.8C493.8 232.7 494.9 229.1 495.7 225H506C505.1 230.2 503.6 234.8 501.6 239C499.5 243.2 497.1 246.8 494.3 249.7L491.8 252.1C489.6 254.2 487.1 256 484.4 257.4C481.7 258.9 478.7 260 475.5 260.8C472.2 261.6 468.5 262 464.4 262L464.2 261.9ZM498 260.5C497.5 260.1 496.6 259.5 495.5 258.6C494.4 257.7 493.1 256.8 491.8 255.7C490.5 254.6 489.3 253.7 488.2 252.9C487.1 252.1 486.3 251.4 485.9 251L484 249.9L454.2 228.9L452.7 227.1C450 225.2 448 223.3 446.7 221.3C445.4 219.3 444.7 217 444.7 214.3V214C444.7 209.5 446.4 206 449.9 203.4C453.4 200.8 458.8 199.6 466.2 199.6C473.6 199.6 475.8 200.1 479.4 201C483.1 201.9 486 202.9 488.4 204L489.7 212.9C486.8 211.6 483.5 210.5 479.8 209.5C476 208.6 472 208.1 467.8 208.1C463.6 208.1 460.1 208.7 458.4 210C456.6 211.2 455.7 212.9 455.7 215C455.7 216.9 456.3 218.4 457.6 219.7C458.9 221 460.6 222.4 462.8 223.9L489.8 243.2L493.6 246C494.8 247 496 247.9 497.2 248.8C498.3 249.7 499.5 250.6 500.6 251.5C501.7 252.4 502.8 253.2 503.9 254.1C505 255 506.1 255.9 507.2 256.8C508.3 257.7 509.4 258.6 510.6 259.6V260.6H498.3L498 260.5Z" fill="white"/>
<path d="M537 260.5V200.9H547.2V260.5H537ZM544.5 260.5V252.1H576.4C580.3 252.1 583.1 251.3 584.9 249.7C586.7 248.1 587.6 246 587.6 243.3V242.7C587.6 239.9 586.7 237.8 584.9 236.2C583.1 234.7 580.2 233.9 576.2 233.9H544.4V225.8H575.2C579 225.8 581.7 225.1 583.4 223.6C585.1 222.1 586 220.2 586 217.9V217.3C586 214.8 585.1 212.8 583.4 211.4C581.7 210 578.9 209.2 575.2 209.2H544.4V200.9H575.7C583 200.9 588.3 202.2 591.6 204.7C594.8 207.2 596.4 210.8 596.4 215.4V216.1C596.4 219.5 595.4 222.2 593.3 224.3C591.2 226.4 588.3 227.6 584.4 228V228.4C588.8 229 592.3 230.5 594.6 233C597 235.5 598.2 238.9 598.2 243.4V244.1C598.2 249.2 596.5 253.2 593.1 256.1C589.7 259.1 584.3 260.5 576.9 260.5H544.3H544.5Z" fill="white"/>
<path d="M630.7 260.5V200.9H640.9V260.5H630.7ZM679.8 260.5L677.8 250.8C677.3 248.1 676.6 245.9 675.6 244.1C674.7 242.3 673.3 240.9 671.5 240C669.7 239.1 667.1 238.6 663.7 238.6H637.7V230.5H665.8C670.3 230.5 673.7 229.5 675.8 227.5C677.9 225.6 679 223 679 219.8V219.3C679 216.2 678 213.7 675.9 211.9C673.9 210.1 670.6 209.2 666 209.2H637.6V200.9H667.2C674.9 200.9 680.5 202.4 684.1 205.3C687.7 208.3 689.5 212.4 689.5 217.7V218.4C689.5 222.5 688.4 225.8 686.3 228.1C684.2 230.5 680.8 232 676.3 232.6V233.9L671 232.4C675 232.6 678.2 233.3 680.4 234.7C682.6 236 684.3 237.9 685.5 240.3C686.7 242.7 687.6 245.6 688.3 249L690.8 260.7H679.7L679.8 260.5Z" fill="white"/>
<path d="M716.5 260.5L744.1 200.9H759.8L787.2 260.5H776.4L752.7 207.4H751.2L727.3 260.5H716.5ZM732.6 244V235.6H771V244H732.6Z" fill="white"/>
<path d="M827.1 260.5H816.7V200.9H827.1V260.5Z" fill="white"/>
<path d="M878.3 200.9L913.8 250.4H914.6L914.2 226.7V200.9H924.6V260.5H910L873.9 210.2H873.1L873.5 235.8V260.5H863.1V200.9H878.3Z" fill="white"/>
<path d="M986 261.9C981.8 261.9 978 261.6 974.5 260.9C971 260.3 967.9 259.5 965.1 258.5C962.4 257.6 960 256.7 958.1 255.8L957 245.8C960.4 247.6 964.6 249.3 969.7 250.7C974.7 252.2 980.1 252.9 986 252.9C991.9 252.9 996.9 252.1 999.8 250.6C1002.7 249.1 1004.2 246.8 1004.2 243.6C1004.2 241.4 1003.6 239.7 1002.4 238.4C1001.2 237.1 999.2 236.2 996.3 235.5C993.4 234.8 989.4 234.3 984.3 233.9C977.6 233.4 972.3 232.5 968.3 231.2C964.3 229.9 961.5 228.1 959.7 225.7C958 223.3 957.1 220.2 957.1 216.5V216.3C957.1 210.8 959.3 206.7 963.7 203.8C968.1 200.9 974.8 199.5 983.9 199.5C993 199.5 995.5 200.1 999.9 201.2C1004.3 202.3 1007.9 203.5 1010.7 204.8L1011.9 214C1008.5 212.3 1004.5 210.9 999.9 209.8C995.3 208.6 990.3 208.1 984.8 208.1C979.3 208.1 977.2 208.4 974.7 209.1C972.2 209.8 970.5 210.7 969.4 211.9C968.3 213.1 967.8 214.6 967.8 216.4C967.8 218.2 968.3 219.7 969.3 220.9C970.3 222.1 972.2 223.1 975 223.8C977.8 224.6 981.9 225.2 987.4 225.7C993.9 226.3 999.2 227.1 1003.3 228.3C1007.4 229.5 1010.3 231.2 1012.2 233.6C1014.1 236 1015 239.3 1015 243.5V243.7C1015 249.9 1012.6 254.5 1007.8 257.4C1003 260.4 995.7 261.8 986 261.8V261.9Z" fill="white"/>
<path d="M356.4 169.6C360.3 161.2 362.4 151.7 362 141.7C362 139.9 361.8 138.2 361.6 136.4C361.6 136.3 361.6 136.1 361.6 136C361.6 135.5 361.6 135.1 361.4 134.6C361.4 134.4 361.4 134.2 361.4 134C357.1 108.1 336.3 88 310.6 83.5C307 82.9 303.4 82.5 299.6 82.5H197.2L133.5 0L167.4 87.7L168.3 89.9L186 135.6H137.5L174.6 188.2H140.6L143.5 191.9L169.3 225.4H61.2C48.2 225.4 37.8 214.5 38.4 201.4C39 189.1 49.6 179.7 61.9 179.7H157.4L130 141.2H98.2C85.2 141.2 74.7 130.3 75.4 117.2C76 105 86.6 95.5 98.8 95.5H146L131.1 57H99.4C67.2 57 39.7 81.3 37.1 113.3C36.2 124.3 38.3 134.8 42.6 144C17.9 151.9 0 175.1 0 202.4C0 229.7 2.28733e-06 205.1 0.100002 206.4C0.100002 207.5 0.300002 208.7 0.400002 209.8C3.3 234.2 20.6 254.2 43.5 261.1C44.3 261.3 45.1 261.5 45.8 261.8C50.7 263.1 55.8 263.7 61.1 263.7H198.9L208.3 275.9L261.8 345.2L232.7 269.7L228.8 259.7L210.8 213.1L209.4 209.4H257.9L220.8 156.8H254.8L228.2 122.3L226.9 120.6H300.2C309 120.6 317 125.5 321 132.8C321.2 133.1 321.3 133.3 321.4 133.6C322.7 136.2 323.5 139.2 323.7 142.3C324.3 155 314.5 165.6 302.1 166.2C301.7 166.2 301.3 166.2 301 166.2H241.5L269.2 204.7H337.3C349.6 204.7 360.2 214.1 360.8 226.4C361.4 239.5 351 250.4 338 250.4H250.6L265.5 288.9H336.8C370.4 288.9 398.6 262.4 399.3 228.8C399.8 201 381.8 177.2 356.7 169.2L356.4 169.6Z" fill="#CF9947"/>
</svg>
